<?xml version="1.0" encoding="UTF-8" standalone="no"?><svg xmlns="http://www.w3.org/2000/svg" xmlns:xlink="http://www.w3.org/1999/xlink" fill="#000000" height="165" preserveAspectRatio="xMidYMid meet" version="1" viewBox="-0.0 -0.0 141.2 165.0" width="141.2" zoomAndPan="magnify"><g data-name="Capa 2"><g><g id="change1_1"><path d="M139.87,76.28a29.34,29.34,0,0,0-1.83-5,28.15,28.15,0,0,0-3-4.84A36.51,36.51,0,0,0,131.14,62a52,52,0,0,0-4.41-3.75c-1.51-1.16-3.07-2.23-5-3.47s-3.66-2.38-5.61-3.56c-3.9-2.37-7.86-4.54-11.77-6.43-2-1-4-1.85-5.91-2.66L95.69,41l-2.44-1-.53-.2a227.31,227.31,0,0,0-24.33-8.13A122.75,122.75,0,0,0,56,29.1c-2-.33-4.12-.58-6.18-.77s-3.8-.25-5.56-.25a46.44,46.44,0,0,0-9.57,1A37.34,37.34,0,0,0,26.08,32a32.88,32.88,0,0,0-7.39,4.91,33.34,33.34,0,0,0-5.93,6.92,35.89,35.89,0,0,0-2.35,4.25,46.25,46.25,0,0,0-1.84,4.58A78.27,78.27,0,0,0,6,62.45a87.23,87.23,0,0,0-1.45,10.6,80.5,80.5,0,0,0-.07,11A56.55,56.55,0,0,0,9.2,104.31a35.66,35.66,0,0,0,2.36,4.31,30.92,30.92,0,0,0,2.71,3.61,34.16,34.16,0,0,0,6.65,5.87,46.89,46.89,0,0,0,7.9,4.27,74.45,74.45,0,0,0,8.8,3.11c.87.25,1.74.48,2.61.71l.58.17.14,0c.58.2,1.16.38,1.75.55s1.4.39,2.11.55c2.08.67,4.17,1.33,6.26,2a118.85,118.85,0,0,0,15,3.6,48,48,0,0,1-6.64,10.26,57.65,57.65,0,0,1-11.26,10.13h0a63.13,63.13,0,0,1-7.91,4.6.44.44,0,0,0-.23.27.42.42,0,0,0,0,.35.45.45,0,0,0,.1.14.41.41,0,0,0,.31.22,24.89,24.89,0,0,0,3.5.23,42.89,42.89,0,0,0,12.33-2.11c2.22-.67,4.6-1.49,7.5-2.6,2.46-1,4.9-2,7.25-3.16a68.7,68.7,0,0,0,9.4-5.56,54.52,54.52,0,0,0,4.3-3.41A29.86,29.86,0,0,0,88,139.21a36,36,0,0,0,10,1.72l1.5,0a41.38,41.38,0,0,0,9.24-1.05,34.4,34.4,0,0,0,5-1.54,28.86,28.86,0,0,0,4.59-2.28,26.17,26.17,0,0,0,4.16-3.22,33.93,33.93,0,0,0,3.6-4.07,57.88,57.88,0,0,0,5.79-9.57,106.75,106.75,0,0,0,4.34-9.78,82.48,82.48,0,0,0,3.35-10.94A57.42,57.42,0,0,0,141,87.22,38.05,38.05,0,0,0,139.87,76.28ZM54.52,122.51a3.09,3.09,0,0,1-3.46,1.41c-1.41-.4-2.8-.88-4.19-1.32L43,121.39c-2.57-.81-5.13-1.64-7.64-2.64a43.55,43.55,0,0,1-6.35-3,41.67,41.67,0,0,1-5-3.51,34.71,34.71,0,0,1-7.26-8.35,41.09,41.09,0,0,1-4.28-9.54,51.48,51.48,0,0,1-2.18-11.8,74.17,74.17,0,0,1,.12-12.29,97.79,97.79,0,0,1,2-12.52c.92-4.09,2.09-8.11,3.38-12.09a.81.81,0,0,1,.75-.58.64.64,0,0,1,.2,0,.79.79,0,0,1,.55,1,98.54,98.54,0,0,0-3.72,16.53,75.41,75.41,0,0,0-.27,19.22,49.65,49.65,0,0,0,3,11.5,38.72,38.72,0,0,0,4.6,7.8,37.08,37.08,0,0,0,6,6,44.07,44.07,0,0,0,9.08,5.23c2.69,1.1,5.47,1.93,8.26,2.76a51.52,51.52,0,0,1,9,3.27A3.1,3.1,0,0,1,54.52,122.51ZM58.84,125a2.3,2.3,0,1,1,2.3-2.3A2.33,2.33,0,0,1,58.84,125Zm24.67,14a17.85,17.85,0,0,1-1.21,1.4c-.39.39-.78.76-1.19,1.13-.79.7-1.6,1.39-2.46,2a45.66,45.66,0,0,1-5.82,3.68c-1,.54-2,1.08-3,1.57s-2,.94-3,1.39c-1.92.87-3.86,1.7-5.77,2.59a.31.31,0,0,1-.41-.14.31.31,0,0,1,.13-.41c1.4-.66,2.74-1.42,4.07-2.2s2.56-1.61,3.8-2.47l1.16-.82c1-.72,2-1.49,3-2.26s2-1.61,3-2.43,2-1.63,2.9-2.47,1.75-1.6,2.65-2.37a1.48,1.48,0,0,1,1-.36,1.38,1.38,0,0,1,1.38,1.45A1.4,1.4,0,0,1,83.51,139Zm55.31-52.82a26.75,26.75,0,0,1-.48,2.77c-.17.72-.4,1.42-.6,2.14a2.11,2.11,0,0,1-4.11-.79,19.26,19.26,0,0,1,.39-2.12,32.29,32.29,0,0,0,.55-7.72,24.6,24.6,0,0,0-1-5.18,26.45,26.45,0,0,0-2.73-5.67,36.24,36.24,0,0,0-6.16-6.87,73.09,73.09,0,0,0-12.31-8.36.38.38,0,0,1-.1-.51.34.34,0,0,1,.29-.16.39.39,0,0,1,.21.06,108.16,108.16,0,0,1,12.31,7.73,51.14,51.14,0,0,1,6.34,5.5,33,33,0,0,1,2.61,3,24.07,24.07,0,0,1,2.27,3.47c.32.61.63,1.22.89,1.85s.52,1.38.76,2.08a18.3,18.3,0,0,1,.86,4A23.36,23.36,0,0,1,138.82,86.22Z" fill="#f6f5f3"/></g><g id="change1_2"><path d="M121.66,153.28a37.19,37.19,0,0,0-2.18-3.88,52.76,52.76,0,0,0-4.61-6.22.41.41,0,0,0-.31-.13.49.49,0,0,0-.34.13.76.76,0,0,0-.08.11l-.06.08a.51.51,0,0,0,0,.35c.21,1.19.43,2.37.65,3.56L115,149c.16.88.31,1.76.47,2.64l0,.22c.11.67.23,1.34.32,2h0c.06.47.12.94.17,1.42a37.75,37.75,0,0,0,.7,4.41,11.87,11.87,0,0,0,1,2.74,8,8,0,0,0,.72,1.07,4.91,4.91,0,0,0,1.13,1,2.84,2.84,0,0,0,1.22.48l.27,0a1.53,1.53,0,0,0,.3,0,2,2,0,0,0,.61-.2,2.31,2.31,0,0,0,.45-.32,2.86,2.86,0,0,0,.4-.47,3.51,3.51,0,0,0,.32-.58,6,6,0,0,0,.31-.84,8.49,8.49,0,0,0,.24-2.65,13.85,13.85,0,0,0-.49-2.81A22.61,22.61,0,0,0,121.66,153.28Z" fill="#f6f5f3"/></g><g id="change1_3"><path d="M134.7,149.45a17.53,17.53,0,0,0-1.43-1.47,34.32,34.32,0,0,0-3.55-2.84,46.37,46.37,0,0,0-4.21-2.67c-.63-.35-1.19-.63-1.7-.87a7.82,7.82,0,0,0-1.2-.47h-.12a.46.46,0,0,0-.34.77.41.41,0,0,0,.13.29l.35.43c.43.55.82,1.12,1.14,1.6l.23.33c.17.25.35.51.51.77l.76,1.25.12.21c.73,1.23,1.59,2.66,2.52,4,.49.72,1,1.4,1.51,2a14.1,14.1,0,0,0,1.58,1.66,6.4,6.4,0,0,0,1.65,1.07,2.91,2.91,0,0,0,.74.2,2.56,2.56,0,0,0,.39,0,3,3,0,0,0,.51,0,2.34,2.34,0,0,0,.75-.3,3.4,3.4,0,0,0,.67-.51,2.55,2.55,0,0,0,.71-1.2,3.67,3.67,0,0,0-.62-2.81A9.87,9.87,0,0,0,134.7,149.45Z" fill="#f6f5f3"/></g><g id="change1_4"><path d="M10.29,26.57l1.15.77c1,.68,1.87,1.26,2.69,1.9h0a14.4,14.4,0,0,1,1.33,1.19l.46.46c.47.47,1,1,1.48,1.4a.53.53,0,0,0,.33.14.43.43,0,0,0,.27.1h0a.48.48,0,0,0,.36-.16.37.37,0,0,0,.11-.29,15,15,0,0,0-.64-3.5,19.55,19.55,0,0,0-1.42-3.39,24.67,24.67,0,0,0-2-3.2A29.82,29.82,0,0,0,12,19.13a27.6,27.6,0,0,0-2.62-2.42,13,13,0,0,0-1.44-1,18.57,18.57,0,0,0-1.84-1.05A13.13,13.13,0,0,0,4,13.78a5.88,5.88,0,0,0-1.65-.28,2.24,2.24,0,0,0-1.76.69A2.68,2.68,0,0,0,0,16.05a4.29,4.29,0,0,0,.11,1,5.86,5.86,0,0,0,.35,1,8.39,8.39,0,0,0,1.23,1.82,16.35,16.35,0,0,0,1.82,1.81,47.86,47.86,0,0,0,4.62,3.49Q9.21,25.87,10.29,26.57Z" fill="#f6f5f3"/></g><g id="change1_5"><path d="M11.17,7.83c.33.72.73,1.47,1.23,2.35.89,1.56,1.9,3.09,2.79,4.44.42.64.85,1.28,1.26,1.93.29.45.62,1,.91,1.54a.52.52,0,0,0,.48.47.47.47,0,0,0,.47-.45,33.57,33.57,0,0,0-.12-7.93A19.65,19.65,0,0,0,16.32,4,15,15,0,0,0,15,2a5.89,5.89,0,0,0-1.6-1.6A2.34,2.34,0,0,0,12.55,0l-.24,0a1.6,1.6,0,0,0-.71.16,2.12,2.12,0,0,0-.78.62,4.12,4.12,0,0,0-.65,1.08,2.92,2.92,0,0,0-.2.75,4.33,4.33,0,0,0-.05,1,8.23,8.23,0,0,0,.38,2.09A17.84,17.84,0,0,0,11.17,7.83Z" fill="#f6f5f3"/></g><g id="change2_1"><path d="M40,67.22v0Z" fill="#fefefe"/></g><g id="change2_2"><path d="M37.12,87.26l.09-.2-.06.14Z" fill="#fefefe"/></g></g></g></svg>