<?xml version="1.0" encoding="UTF-8" standalone="no"?><svg xmlns="http://www.w3.org/2000/svg" xmlns:xlink="http://www.w3.org/1999/xlink" fill="#fefefe" height="512" preserveAspectRatio="xMidYMid meet" version="1" viewBox="70.0 70.0 370.0 370.0" width="512" zoomAndPan="magnify"><g><g><g id="change1_2"><path d="M385,440H125c-30.327,0-55-24.673-55-55V125c0-30.327,24.673-55,55-55h260c30.327,0,55,24.673,55,55v260 C440,415.327,415.327,440,385,440z M125,90c-19.299,0-35,15.701-35,35v260c0,19.299,15.701,35,35,35h260 c19.299,0,35-15.701,35-35V125c0-19.299-15.701-35-35-35H125z"/></g><g id="change1_1"><path d="M255,360c-57.897,0-105-47.103-105-105c0-57.897,47.103-105,105-105c57.897,0,105,47.103,105,105 C360,312.897,312.897,360,255,360z M255,170c-46.869,0-85,38.131-85,85s38.131,85,85,85s85-38.131,85-85S301.869,170,255,170z"/></g><g id="change1_3"><path d="M365,180c-19.299,0-35-15.701-35-35s15.701-35,35-35s35,15.701,35,35S384.299,180,365,180z M365,130 c-8.271,0-15,6.729-15,15s6.729,15,15,15s15-6.729,15-15S373.271,130,365,130z"/></g></g></g></svg>