<?xml version="1.0" encoding="UTF-8"?><svg xmlns="http://www.w3.org/2000/svg" xmlns:xlink="http://www.w3.org/1999/xlink" height="134.1" preserveAspectRatio="xMidYMid meet" version="1.0" viewBox="0.0 0.0 166.0 134.1" width="166.0" zoomAndPan="magnify"><defs><clipPath id="a"><path d="M 25 45 L 140 45 L 140 134.121094 L 25 134.121094 Z M 25 45"/></clipPath><clipPath id="b"><path d="M 155 107 L 166.011719 107 L 166.011719 118 L 155 118 Z M 155 107"/></clipPath></defs><g><g id="change1_1"><path d="M 138.601562 85.175781 L 141.761719 85.175781 C 144.691406 85.175781 147.066406 82.800781 147.066406 79.867188 C 147.066406 78.398438 146.472656 77.074219 145.511719 76.113281 C 144.550781 75.152344 143.226562 74.558594 141.761719 74.558594 L 138.601562 74.558594 L 138.601562 85.175781" fill="#fff"/></g><g id="change1_2"><path d="M 122.929688 37.238281 L 34.851562 37.238281 C 30.082031 37.238281 26.214844 41.109375 26.214844 45.878906 L 26.214844 125.25 C 26.523438 129.695312 30.230469 133.203125 34.753906 133.203125 L 122.929688 133.203125 C 131.585938 133.203125 138.601562 126.1875 138.601562 117.527344 L 138.601562 52.910156 C 138.601562 44.253906 131.585938 37.238281 122.929688 37.238281" fill="#fff"/></g><g id="change2_2"><path d="M 35.875 53.53125 L 122.929688 53.53125 C 129.347656 53.53125 134.925781 57.191406 137.683594 62.539062 L 137.683594 52.910156 C 137.683594 44.777344 131.0625 38.15625 122.929688 38.15625 L 34.851562 38.15625 C 30.59375 38.15625 27.132812 41.621094 27.132812 45.878906 C 27.132812 50.097656 30.59375 53.53125 34.851562 53.53125 C 34.988281 53.53125 35.121094 53.535156 35.253906 53.539062 C 35.445312 53.546875 35.632812 53.558594 35.820312 53.535156 Z M 139.519531 70.121094 L 137.683594 70.121094 C 137.683594 61.984375 131.0625 55.367188 122.929688 55.367188 L 35.980469 55.367188 C 35.714844 55.394531 35.449219 55.386719 35.179688 55.375 C 35.074219 55.371094 34.960938 55.367188 34.851562 55.367188 C 29.582031 55.367188 25.292969 51.109375 25.292969 45.878906 C 25.292969 40.609375 29.582031 36.320312 34.851562 36.320312 L 122.929688 36.320312 C 132.074219 36.320312 139.519531 43.765625 139.519531 52.910156 L 139.519531 70.121094" fill="#434d5b"/></g><g id="change3_2"><path d="M 135.539062 56.28125 C 132.210938 53.242188 127.78125 51.386719 122.929688 51.386719 L 35.746094 51.386719 L 35.5625 51.410156 C 35.496094 51.40625 35.417969 51.402344 35.339844 51.398438 C 35.175781 51.394531 35.015625 51.386719 34.851562 51.386719 C 31.777344 51.386719 29.273438 48.914062 29.273438 45.878906 C 29.273438 42.800781 31.777344 40.300781 34.851562 40.300781 L 122.929688 40.300781 C 129.882812 40.300781 135.539062 45.957031 135.539062 52.910156 L 135.539062 56.28125" fill="#f57a61"/></g><g id="change3_3"><path d="M 135.539062 52.910156 L 135.539062 56.277344 C 132.210938 53.242188 127.78125 51.386719 122.929688 51.386719 L 35.746094 51.386719 L 35.5625 51.410156 C 35.492188 51.40625 35.414062 51.398438 35.339844 51.398438 C 35.175781 51.394531 35.015625 51.386719 34.851562 51.386719 C 31.777344 51.386719 29.273438 48.914062 29.273438 45.878906 C 29.273438 42.804688 31.777344 40.300781 34.851562 40.300781 L 122.929688 40.300781 C 129.882812 40.300781 135.539062 45.957031 135.539062 52.910156" fill="#f57a61"/></g><g clip-path="url(#a)" id="change2_1"><path d="M 27.132812 125.214844 C 27.425781 129.183594 30.769531 132.28125 34.753906 132.28125 L 122.929688 132.28125 C 131.0625 132.28125 137.683594 125.664062 137.683594 117.527344 L 137.683594 70.121094 C 137.683594 61.984375 131.0625 55.367188 122.929688 55.367188 L 35.980469 55.367188 C 35.714844 55.394531 35.449219 55.386719 35.179688 55.375 C 35.074219 55.371094 34.960938 55.367188 34.851562 55.367188 C 31.683594 55.367188 28.871094 53.828125 27.132812 51.464844 Z M 122.929688 134.121094 L 34.753906 134.121094 C 29.796875 134.121094 25.644531 130.253906 25.296875 125.3125 L 25.292969 125.25 L 25.292969 45.878906 L 27.132812 45.878906 C 27.132812 50.097656 30.59375 53.53125 34.851562 53.53125 C 34.988281 53.53125 35.121094 53.535156 35.253906 53.539062 C 35.445312 53.546875 35.632812 53.558594 35.820312 53.535156 L 35.929688 53.53125 L 122.929688 53.53125 C 132.074219 53.53125 139.519531 60.972656 139.519531 70.121094 L 139.519531 117.527344 C 139.519531 126.679688 132.074219 134.121094 122.929688 134.121094" fill="#434d5b"/></g><g id="change4_1"><path d="M 34.753906 130.140625 C 31.910156 130.140625 29.519531 127.945312 29.273438 125.128906 L 29.273438 56.101562 C 30.933594 57 32.832031 57.507812 34.851562 57.507812 C 34.933594 57.507812 35.015625 57.511719 35.097656 57.515625 C 35.257812 57.523438 35.414062 57.527344 35.574219 57.527344 C 35.746094 57.527344 35.914062 57.523438 36.074219 57.507812 L 122.929688 57.507812 C 129.882812 57.507812 135.539062 63.167969 135.539062 70.121094 L 135.539062 117.527344 C 135.539062 124.484375 129.882812 130.140625 122.929688 130.140625 L 34.753906 130.140625" fill="#7dd4e1"/></g><g id="change1_3"><path d="M 35.644531 57.527344 C 35.621094 57.527344 35.597656 57.527344 35.574219 57.527344 C 35.414062 57.527344 35.257812 57.523438 35.097656 57.515625 C 35.015625 57.511719 34.933594 57.507812 34.851562 57.507812 C 32.832031 57.507812 30.933594 57 29.273438 56.101562 L 29.273438 125.128906 C 29.519531 127.945312 31.910156 130.140625 34.753906 130.140625 L 35.644531 130.140625 L 35.644531 57.527344" fill="#fff"/></g><g id="change3_4"><path d="M 135.539062 102.722656 L 135.539062 108.585938 L 111.40625 108.585938 C 108.253906 108.585938 105.695312 106.027344 105.695312 102.875 C 105.695312 102.621094 105.714844 102.378906 105.742188 102.132812 C 106.722656 102.511719 107.789062 102.722656 108.902344 102.722656 L 135.539062 102.722656" fill="#f57a61"/></g><g id="change1_4"><path d="M 103.6875 36.945312 C 103.6875 37.832031 103.632812 38.703125 103.527344 39.558594 C 103.496094 39.8125 103.460938 40.054688 103.425781 40.300781 C 102.898438 43.636719 101.59375 46.714844 99.707031 49.34375 C 99.1875 50.058594 98.628906 50.746094 98.03125 51.386719 L 66.78125 51.386719 C 66.183594 50.746094 65.625 50.058594 65.105469 49.34375 C 63.21875 46.714844 61.917969 43.636719 61.390625 40.300781 C 61.351562 40.054688 61.316406 39.8125 61.285156 39.558594 C 61.179688 38.703125 61.125 37.832031 61.125 36.945312 C 61.125 25.195312 70.652344 15.664062 82.40625 15.664062 C 94.15625 15.664062 103.6875 25.195312 103.6875 36.945312" fill="#fff"/></g><g id="change1_5"><path d="M 103.6875 42.113281 C 103.6875 45.4375 102.921875 48.582031 101.5625 51.386719 L 63.25 51.386719 C 61.890625 48.582031 61.125 45.4375 61.125 42.113281 C 61.125 41.5 61.152344 40.894531 61.207031 40.300781 C 61.222656 40.050781 61.253906 39.804688 61.285156 39.558594 C 61.714844 35.933594 63.0625 32.59375 65.082031 29.769531 C 68.933594 24.359375 75.257812 20.839844 82.40625 20.839844 C 89.550781 20.839844 95.875 24.359375 99.730469 29.769531 C 101.753906 32.59375 103.101562 35.933594 103.527344 39.558594 C 103.558594 39.804688 103.589844 40.050781 103.605469 40.300781 C 103.660156 40.894531 103.6875 41.5 103.6875 42.113281" fill="#fff"/></g><g id="change4_2"><path d="M 101.269531 37.238281 C 101.269531 38.011719 101.21875 38.777344 101.128906 39.523438 C 101.097656 39.785156 101.058594 40.042969 101.015625 40.300781 C 100.300781 44.691406 98.074219 48.570312 94.878906 51.386719 L 69.929688 51.386719 C 66.742188 48.570312 64.507812 44.691406 63.796875 40.300781 C 63.753906 40.042969 63.714844 39.785156 63.683594 39.523438 C 63.59375 38.777344 63.542969 38.011719 63.542969 37.238281 C 63.542969 34.582031 64.09375 32.058594 65.082031 29.769531 C 67.976562 23.066406 74.644531 18.378906 82.40625 18.378906 C 90.167969 18.378906 96.835938 23.066406 99.730469 29.769531 C 100.71875 32.058594 101.269531 34.582031 101.269531 37.238281" fill="#7dd4e1"/></g><g id="change5_1"><path d="M 101.269531 41.824219 C 101.269531 44.492188 100.710938 47.039062 99.707031 49.34375 C 99.402344 50.046875 99.050781 50.730469 98.667969 51.386719 L 66.148438 51.386719 C 65.761719 50.730469 65.410156 50.046875 65.105469 49.34375 C 64.101562 47.039062 63.542969 44.492188 63.542969 41.824219 C 63.542969 41.3125 63.5625 40.800781 63.605469 40.300781 C 63.625 40.039062 63.65625 39.78125 63.683594 39.523438 C 64.820312 30.1875 72.765625 22.964844 82.40625 22.964844 C 92.042969 22.964844 99.996094 30.1875 101.128906 39.523438 C 101.15625 39.78125 101.1875 40.039062 101.207031 40.300781 C 101.25 40.800781 101.269531 41.3125 101.269531 41.824219" fill="#fbd337"/></g><g id="change2_3"><path d="M 99.457031 51.851562 L 97.875 50.921875 C 98.242188 50.300781 98.574219 49.644531 98.863281 48.976562 C 99.851562 46.71875 100.351562 44.3125 100.351562 41.824219 C 100.351562 41.308594 100.332031 40.835938 100.292969 40.378906 C 100.273438 40.117188 100.246094 39.875 100.214844 39.632812 C 99.128906 30.652344 91.46875 23.882812 82.40625 23.882812 C 73.34375 23.882812 65.6875 30.652344 64.597656 39.632812 C 64.566406 39.886719 64.539062 40.121094 64.523438 40.363281 C 64.480469 40.832031 64.464844 41.304688 64.464844 41.824219 C 64.464844 44.3125 64.964844 46.71875 65.949219 48.976562 C 66.238281 49.644531 66.570312 50.296875 66.9375 50.921875 L 65.355469 51.851562 C 64.949219 51.164062 64.582031 50.445312 64.265625 49.710938 C 63.175781 47.21875 62.625 44.566406 62.625 41.824219 C 62.625 41.253906 62.648438 40.730469 62.691406 40.222656 C 62.710938 39.964844 62.738281 39.699219 62.773438 39.433594 C 63.976562 29.511719 72.414062 22.046875 82.40625 22.046875 C 92.398438 22.046875 100.839844 29.511719 102.039062 39.414062 C 102.070312 39.6875 102.101562 39.957031 102.121094 40.234375 C 102.164062 40.734375 102.1875 41.257812 102.1875 41.824219 C 102.1875 44.566406 101.636719 47.21875 100.550781 49.710938 C 100.230469 50.445312 99.863281 51.167969 99.457031 51.851562" fill="#434d5b"/></g><g id="change1_6"><path d="M 86.410156 47.570312 C 85.964844 48.015625 85.34375 48.289062 84.660156 48.289062 L 81.066406 48.289062 L 81.066406 43.339844 L 84.660156 43.339844 C 86.03125 43.339844 87.140625 44.445312 87.140625 45.8125 C 87.140625 46.496094 86.855469 47.117188 86.410156 47.570312 Z M 81.066406 36.402344 L 83.617188 36.402344 C 84.878906 36.402344 85.902344 37.425781 85.902344 38.683594 C 85.902344 39.320312 85.652344 39.890625 85.234375 40.308594 C 84.820312 40.71875 84.25 40.976562 83.617188 40.976562 L 81.066406 40.976562 Z M 87.167969 41.445312 C 87.953125 41.300781 88.652344 40.914062 89.195312 40.375 C 89.902344 39.671875 90.335938 38.703125 90.335938 37.632812 C 90.335938 35.488281 88.59375 33.75 86.453125 33.75 L 84.835938 33.75 L 84.835938 30.027344 L 82.53125 30.027344 L 82.53125 33.75 L 81.066406 33.75 L 81.066406 30.027344 L 78.753906 30.027344 L 78.753906 33.75 L 74.054688 33.75 L 74.054688 36.242188 L 75.792969 36.242188 C 75.792969 36.242188 76.867188 36.089844 76.867188 37.289062 L 76.867188 47.433594 C 76.867188 48.632812 75.792969 48.480469 75.792969 48.480469 L 74.054688 48.480469 L 74.054688 49.203125 L 90.789062 49.203125 C 91.457031 48.382812 91.859375 47.328125 91.859375 46.191406 C 91.859375 43.589844 89.765625 41.476562 87.167969 41.445312" fill="#fff"/></g><g id="change2_4"><path d="M 26.605469 64.550781 L 26.25 64.550781 L 26.25 62.714844 L 26.605469 62.714844 Z M 30.28125 64.550781 L 28.445312 64.550781 L 28.445312 62.714844 L 30.28125 62.714844 Z M 33.953125 64.550781 L 32.117188 64.550781 L 32.117188 62.714844 L 33.953125 62.714844 Z M 37.625 64.550781 L 35.789062 64.550781 L 35.789062 62.714844 L 37.625 62.714844 Z M 41.300781 64.550781 L 39.464844 64.550781 L 39.464844 62.714844 L 41.300781 62.714844 Z M 44.972656 64.550781 L 43.136719 64.550781 L 43.136719 62.714844 L 44.972656 62.714844 Z M 48.644531 64.550781 L 46.808594 64.550781 L 46.808594 62.714844 L 48.644531 62.714844 Z M 52.320312 64.550781 L 50.484375 64.550781 L 50.484375 62.714844 L 52.320312 62.714844 Z M 55.992188 64.550781 L 54.15625 64.550781 L 54.15625 62.714844 L 55.992188 62.714844 Z M 59.664062 64.550781 L 57.828125 64.550781 L 57.828125 62.714844 L 59.664062 62.714844 Z M 63.339844 64.550781 L 61.503906 64.550781 L 61.503906 62.714844 L 63.339844 62.714844 Z M 67.011719 64.550781 L 65.175781 64.550781 L 65.175781 62.714844 L 67.011719 62.714844 Z M 70.683594 64.550781 L 68.847656 64.550781 L 68.847656 62.714844 L 70.683594 62.714844 Z M 74.359375 64.550781 L 72.523438 64.550781 L 72.523438 62.714844 L 74.359375 62.714844 Z M 78.03125 64.550781 L 76.195312 64.550781 L 76.195312 62.714844 L 78.03125 62.714844 Z M 81.707031 64.550781 L 79.867188 64.550781 L 79.867188 62.714844 L 81.707031 62.714844 Z M 85.378906 64.550781 L 83.542969 64.550781 L 83.542969 62.714844 L 85.378906 62.714844 Z M 89.050781 64.550781 L 87.214844 64.550781 L 87.214844 62.714844 L 89.050781 62.714844 Z M 92.722656 64.550781 L 90.886719 64.550781 L 90.886719 62.714844 L 92.722656 62.714844 Z M 96.398438 64.550781 L 94.5625 64.550781 L 94.5625 62.714844 L 96.398438 62.714844 Z M 100.070312 64.550781 L 98.234375 64.550781 L 98.234375 62.714844 L 100.070312 62.714844 Z M 103.742188 64.550781 L 101.90625 64.550781 L 101.90625 62.714844 L 103.742188 62.714844 Z M 107.417969 64.550781 L 105.582031 64.550781 L 105.582031 62.714844 L 107.417969 62.714844 Z M 111.089844 64.550781 L 109.253906 64.550781 L 109.253906 62.714844 L 111.089844 62.714844 Z M 114.765625 64.550781 L 112.925781 64.550781 L 112.925781 62.714844 L 114.765625 62.714844 Z M 118.4375 64.550781 L 116.601562 64.550781 L 116.601562 62.714844 L 118.4375 62.714844 Z M 122.109375 64.550781 L 120.273438 64.550781 L 120.273438 62.714844 L 122.109375 62.714844 Z M 125.300781 65.078125 C 124.824219 64.855469 124.316406 64.699219 123.800781 64.617188 L 124.085938 62.804688 C 124.777344 62.914062 125.449219 63.121094 126.085938 63.417969 Z M 127.632812 67.140625 C 127.351562 66.695312 127.007812 66.292969 126.609375 65.945312 L 127.828125 64.570312 C 128.351562 65.03125 128.808594 65.566406 129.183594 66.15625 Z M 128.5 70.128906 L 128.5 70.121094 C 128.5 69.59375 128.425781 69.074219 128.28125 68.570312 L 130.042969 68.058594 C 130.238281 68.726562 130.335938 69.421875 130.335938 70.121094 Z M 130.335938 73.800781 L 128.5 73.800781 L 128.5 71.964844 L 130.335938 71.964844 Z M 130.335938 77.472656 L 128.5 77.472656 L 128.5 75.636719 L 130.335938 75.636719 Z M 130.335938 81.148438 L 128.5 81.148438 L 128.5 79.3125 L 130.335938 79.3125 Z M 130.335938 84.820312 L 128.5 84.820312 L 128.5 82.984375 L 130.335938 82.984375 Z M 130.335938 88.492188 L 128.5 88.492188 L 128.5 86.65625 L 130.335938 86.65625 Z M 130.335938 92.167969 L 128.5 92.167969 L 128.5 90.332031 L 130.335938 90.332031 Z M 130.335938 95.839844 L 128.5 95.839844 L 128.5 94.003906 L 130.335938 94.003906 Z M 130.335938 99.511719 L 128.5 99.511719 L 128.5 97.675781 L 130.335938 97.675781 Z M 130.335938 103.1875 L 128.5 103.1875 L 128.5 101.351562 L 130.335938 101.351562 Z M 130.335938 106.859375 L 128.5 106.859375 L 128.5 105.023438 L 130.335938 105.023438 Z M 130.335938 110.53125 L 128.5 110.53125 L 128.5 108.695312 L 130.335938 108.695312 Z M 130.335938 114.207031 L 128.5 114.207031 L 128.5 112.367188 L 130.335938 112.367188 Z M 130.324219 117.929688 L 128.492188 117.828125 C 128.496094 117.730469 128.5 117.628906 128.5 117.527344 L 128.5 116.042969 L 130.335938 116.042969 L 130.335938 117.527344 C 130.335938 117.664062 130.332031 117.796875 130.324219 117.929688 Z M 128.957031 121.832031 L 127.464844 120.761719 C 127.769531 120.332031 128.015625 119.863281 128.1875 119.371094 L 129.921875 119.976562 C 129.6875 120.636719 129.363281 121.261719 128.957031 121.832031 Z M 125.710938 124.394531 L 125.019531 122.691406 C 125.507812 122.496094 125.960938 122.230469 126.378906 121.902344 L 127.515625 123.34375 C 126.964844 123.777344 126.359375 124.132812 125.710938 124.394531 Z M 28.085938 124.9375 L 26.25 124.9375 L 26.25 123.101562 L 28.085938 123.101562 Z M 31.761719 124.9375 L 29.921875 124.9375 L 29.921875 123.101562 L 31.761719 123.101562 Z M 35.433594 124.9375 L 33.597656 124.9375 L 33.597656 123.101562 L 35.433594 123.101562 Z M 39.105469 124.9375 L 37.269531 124.9375 L 37.269531 123.101562 L 39.105469 123.101562 Z M 42.78125 124.9375 L 40.945312 124.9375 L 40.945312 123.101562 L 42.78125 123.101562 Z M 46.453125 124.9375 L 44.617188 124.9375 L 44.617188 123.101562 L 46.453125 123.101562 Z M 50.125 124.9375 L 48.289062 124.9375 L 48.289062 123.101562 L 50.125 123.101562 Z M 53.800781 124.9375 L 51.964844 124.9375 L 51.964844 123.101562 L 53.800781 123.101562 Z M 57.472656 124.9375 L 55.636719 124.9375 L 55.636719 123.101562 L 57.472656 123.101562 Z M 61.144531 124.9375 L 59.308594 124.9375 L 59.308594 123.101562 L 61.144531 123.101562 Z M 64.820312 124.9375 L 62.984375 124.9375 L 62.984375 123.101562 L 64.820312 123.101562 Z M 68.492188 124.9375 L 66.65625 124.9375 L 66.65625 123.101562 L 68.492188 123.101562 Z M 72.164062 124.9375 L 70.328125 124.9375 L 70.328125 123.101562 L 72.164062 123.101562 Z M 75.839844 124.9375 L 74.003906 124.9375 L 74.003906 123.101562 L 75.839844 123.101562 Z M 79.511719 124.9375 L 77.675781 124.9375 L 77.675781 123.101562 L 79.511719 123.101562 Z M 83.183594 124.9375 L 81.347656 124.9375 L 81.347656 123.101562 L 83.183594 123.101562 Z M 86.859375 124.9375 L 85.023438 124.9375 L 85.023438 123.101562 L 86.859375 123.101562 Z M 90.53125 124.9375 L 88.695312 124.9375 L 88.695312 123.101562 L 90.53125 123.101562 Z M 94.207031 124.9375 L 92.367188 124.9375 L 92.367188 123.101562 L 94.207031 123.101562 Z M 97.878906 124.9375 L 96.042969 124.9375 L 96.042969 123.101562 L 97.878906 123.101562 Z M 101.550781 124.9375 L 99.714844 124.9375 L 99.714844 123.101562 L 101.550781 123.101562 Z M 105.226562 124.9375 L 103.390625 124.9375 L 103.390625 123.101562 L 105.226562 123.101562 Z M 108.898438 124.9375 L 107.0625 124.9375 L 107.0625 123.101562 L 108.898438 123.101562 Z M 112.570312 124.9375 L 110.734375 124.9375 L 110.734375 123.101562 L 112.570312 123.101562 Z M 116.242188 124.9375 L 114.40625 124.9375 L 114.40625 123.101562 L 116.242188 123.101562 Z M 119.917969 124.9375 L 118.082031 124.9375 L 118.082031 123.101562 L 119.917969 123.101562 Z M 122.929688 124.9375 L 121.753906 124.9375 L 121.753906 123.101562 L 122.929688 123.101562 C 123.121094 123.101562 123.308594 123.089844 123.496094 123.070312 L 123.683594 124.898438 C 123.433594 124.925781 123.183594 124.9375 122.929688 124.9375" fill="#434d5b"/></g><g id="change2_5"><path d="M 139.519531 84.257812 L 141.761719 84.257812 C 144.179688 84.257812 146.148438 82.289062 146.148438 79.867188 C 146.148438 78.695312 145.691406 77.59375 144.863281 76.765625 C 144.035156 75.933594 142.933594 75.476562 141.761719 75.476562 L 139.519531 75.476562 Z M 141.761719 86.09375 L 137.683594 86.09375 L 137.683594 73.640625 L 141.761719 73.640625 C 143.421875 73.640625 144.984375 74.289062 146.160156 75.464844 C 147.339844 76.640625 147.984375 78.203125 147.984375 79.867188 C 147.984375 83.300781 145.191406 86.09375 141.761719 86.09375" fill="#434d5b"/></g><g id="change3_5"><path d="M 141.660156 82.113281 L 141.660156 77.621094 L 141.761719 77.621094 C 142.359375 77.621094 142.925781 77.855469 143.347656 78.277344 C 143.773438 78.703125 144.007812 79.269531 144.007812 79.867188 C 144.007812 81.105469 142.996094 82.113281 141.761719 82.113281 L 141.660156 82.113281" fill="#f57a61"/></g><g id="change1_7"><path d="M 147.066406 97.417969 C 147.066406 100.34375 144.691406 102.722656 141.761719 102.722656 L 108.902344 102.722656 C 104.058594 102.722656 100.128906 98.792969 100.128906 93.949219 C 100.128906 89.101562 104.058594 85.175781 108.902344 85.175781 L 141.761719 85.175781 C 143.226562 85.175781 144.550781 84.582031 145.511719 83.621094 C 146.472656 82.660156 147.066406 81.335938 147.066406 79.867188 L 147.066406 97.417969" fill="#fff"/></g><g id="change5_2"><path d="M 108.902344 99.660156 C 105.746094 99.660156 103.191406 97.101562 103.191406 93.949219 C 103.191406 90.792969 105.746094 88.234375 108.902344 88.234375 L 141.761719 88.234375 C 142.527344 88.234375 143.285156 88.132812 144.007812 87.933594 L 144.007812 97.417969 C 144.007812 98.65625 143.003906 99.660156 141.765625 99.660156 L 108.902344 99.660156" fill="#fbd337"/></g><g id="change2_6"><path d="M 108.902344 86.09375 C 104.570312 86.09375 101.046875 89.617188 101.046875 93.949219 C 101.046875 98.277344 104.570312 101.800781 108.902344 101.800781 L 141.761719 101.800781 C 144.179688 101.800781 146.148438 99.835938 146.148438 97.417969 L 146.148438 84.28125 C 144.972656 85.449219 143.414062 86.09375 141.761719 86.09375 Z M 141.761719 103.640625 L 108.902344 103.640625 C 103.558594 103.640625 99.210938 99.292969 99.210938 93.949219 C 99.210938 88.605469 103.558594 84.257812 108.902344 84.257812 L 141.761719 84.257812 C 142.933594 84.257812 144.035156 83.800781 144.863281 82.96875 C 145.691406 82.140625 146.148438 81.039062 146.148438 79.867188 L 147.984375 79.867188 L 147.984375 97.417969 C 147.984375 100.847656 145.191406 103.640625 141.761719 103.640625" fill="#434d5b"/></g><g id="change3_6"><path d="M 114.3125 93.796875 C 114.3125 95.402344 113.015625 96.703125 111.40625 96.703125 C 109.804688 96.703125 108.503906 95.402344 108.503906 93.796875 C 108.503906 92.191406 109.804688 90.890625 111.40625 90.890625 C 113.015625 90.890625 114.3125 92.191406 114.3125 93.796875" fill="#f57a61"/></g><g id="change3_7"><path d="M 83.914062 15.664062 L 80.296875 0 L 87.789062 0 Z M 83.914062 15.664062" fill="#f57a61"/></g><g id="change3_8"><path d="M 62.078125 25.0625 L 51.035156 19.9375 L 55.792969 14.050781 Z M 62.078125 25.0625" fill="#f57a61"/></g><g id="change3_9"><path d="M 102 24.1875 L 112.621094 15.664062 L 115.066406 18.117188 Z M 102 24.1875" fill="#f57a61"/></g><g id="change2_7"><path d="M 141.460938 18.894531 L 139.625 18.894531 L 139.625 15.417969 L 141.460938 15.417969 L 141.460938 18.894531" fill="#434d5b"/></g><g id="change2_8"><path d="M 139.625 28.464844 L 139.625 24.992188 L 141.460938 24.992188 L 141.460938 28.464844 L 139.625 28.464844" fill="#434d5b"/></g><g id="change2_9"><path d="M 147.066406 22.859375 L 143.59375 22.859375 L 143.59375 21.023438 L 147.066406 21.023438 L 147.066406 22.859375" fill="#434d5b"/></g><g id="change2_10"><path d="M 137.492188 22.859375 L 134.019531 22.859375 L 134.019531 21.023438 L 137.492188 21.023438 L 137.492188 22.859375" fill="#434d5b"/></g><g id="change2_11"><path d="M 12.027344 99.082031 L 10.191406 99.082031 L 10.191406 95.609375 L 12.027344 95.609375 L 12.027344 99.082031" fill="#434d5b"/></g><g id="change2_12"><path d="M 12.027344 108.65625 L 10.191406 108.65625 L 10.191406 105.183594 L 12.027344 105.183594 L 12.027344 108.65625" fill="#434d5b"/></g><g id="change2_13"><path d="M 17.632812 103.050781 L 14.15625 103.050781 L 14.15625 101.214844 L 17.632812 101.214844 L 17.632812 103.050781" fill="#434d5b"/></g><g id="change2_14"><path d="M 8.058594 103.050781 L 4.582031 103.050781 L 4.582031 101.214844 L 8.058594 101.214844 L 8.058594 103.050781" fill="#434d5b"/></g><g id="change4_3"><path d="M 153.761719 64.398438 C 153.761719 65.59375 152.792969 66.5625 151.601562 66.5625 C 150.40625 66.5625 149.4375 65.59375 149.4375 64.398438 C 149.4375 63.203125 150.40625 62.238281 151.601562 62.238281 C 152.792969 62.238281 153.761719 63.203125 153.761719 64.398438" fill="#7dd4e1"/></g><g id="change4_4"><path d="M 6.691406 64.398438 C 6.691406 66.246094 5.195312 67.746094 3.34375 67.746094 C 1.5 67.746094 0 66.246094 0 64.398438 C 0 62.550781 1.5 61.054688 3.34375 61.054688 C 5.195312 61.054688 6.691406 62.550781 6.691406 64.398438" fill="#7dd4e1"/></g><g clip-path="url(#b)" id="change3_1"><path d="M 166.007812 112.460938 C 166.007812 115.46875 163.566406 117.910156 160.558594 117.910156 C 157.550781 117.910156 155.109375 115.46875 155.109375 112.460938 C 155.109375 109.449219 157.550781 107.011719 160.558594 107.011719 C 163.566406 107.011719 166.007812 109.449219 166.007812 112.460938" fill="#f57a61"/></g></g></svg>